<?xml version="1.0" standalone="no"?>
<!DOCTYPE svg PUBLIC "-//W3C//DTD SVG 20010904//EN"
 "http://www.w3.org/TR/2001/REC-SVG-20010904/DTD/svg10.dtd">
<svg version="1.0" xmlns="http://www.w3.org/2000/svg"
 width="1007.000000pt" height="1280.000000pt" viewBox="0 0 1007.000000 1280.000000"
 preserveAspectRatio="xMidYMid meet">
<g transform="translate(0.000000,1280.000000) scale(0.100000,-0.100000)"
fill="#000000" stroke="none">
<path d="M4888 12790 c-9 -6 -50 -16 -91 -24 -40 -8 -91 -22 -113 -31 -21 -10
-64 -27 -95 -40 -76 -31 -191 -106 -217 -142 -24 -34 -77 -164 -92 -226 -21
-87 -29 -273 -20 -477 5 -113 12 -219 16 -237 3 -18 30 -59 58 -92 28 -33 62
-86 76 -118 13 -32 43 -91 67 -131 63 -104 73 -133 73 -212 0 -117 -27 -161
-182 -297 -138 -121 -264 -210 -323 -228 -27 -9 -75 -33 -105 -55 -131 -94
-134 -95 -248 -92 l-104 3 -61 -64 c-35 -36 -90 -112 -126 -173 -43 -71 -91
-135 -140 -186 -78 -80 -169 -218 -197 -298 -9 -25 -23 -61 -32 -80 -17 -35
-269 -295 -389 -401 -46 -40 -63 -62 -63 -80 0 -55 -51 -128 -180 -258 -70
-71 -145 -138 -166 -149 -112 -58 -415 -347 -782 -747 -223 -244 -413 -437
-495 -503 -38 -30 -101 -94 -141 -141 -113 -134 -157 -155 -227 -107 -33 23
-38 24 -58 10 -16 -12 -21 -25 -21 -64 0 -43 -4 -51 -37 -80 -20 -18 -50 -38
-67 -46 -42 -17 -102 -82 -236 -252 -114 -145 -117 -151 -104 -224 5 -28 -1
-55 -22 -108 -15 -39 -31 -73 -36 -76 -15 -10 -8 -33 12 -39 27 -9 41 4 95 85
52 79 135 170 154 170 23 0 7 -57 -54 -194 -57 -130 -77 -196 -57 -196 20 0
177 216 255 351 28 50 46 62 68 48 23 -14 15 -111 -20 -246 -25 -96 -30 -127
-21 -143 6 -11 15 -20 20 -20 15 0 45 66 89 192 57 166 70 187 156 255 41 33
147 128 235 212 88 83 164 151 169 151 6 0 32 20 59 43 27 24 76 59 108 78 33
18 105 71 162 117 57 46 183 137 281 202 98 65 202 139 230 164 63 56 237 187
441 333 138 99 177 134 363 326 286 297 727 712 794 748 33 17 52 -4 112 -120
82 -159 174 -405 244 -651 100 -350 132 -717 81 -941 -15 -67 -15 -71 4 -107
79 -148 77 -143 76 -232 0 -77 -4 -95 -43 -190 -24 -57 -48 -134 -53 -170 -22
-151 -67 -318 -111 -411 -56 -118 -64 -154 -43 -204 24 -56 20 -91 -18 -154
-140 -232 -372 -771 -484 -1126 -42 -130 -52 -178 -56 -255 -7 -118 -55 -319
-97 -402 -17 -35 -72 -128 -122 -208 -50 -80 -109 -178 -132 -217 -60 -109
-194 -297 -280 -393 -167 -188 -257 -327 -421 -645 -158 -307 -300 -640 -450
-1054 -100 -278 -181 -449 -258 -546 -94 -118 -116 -152 -145 -225 -38 -93
-66 -128 -161 -200 -44 -33 -90 -75 -103 -93 -31 -41 -57 -92 -57 -112 0 -8
31 -35 68 -59 38 -24 85 -58 105 -76 46 -40 73 -46 271 -61 l160 -12 43 49
c98 109 103 119 103 203 0 86 10 107 90 201 63 73 73 96 100 219 46 221 106
331 363 674 171 228 212 279 391 475 211 231 283 339 398 594 106 237 155 334
185 369 17 19 33 43 37 55 3 11 19 30 35 42 16 11 38 40 50 64 11 24 46 72 78
108 75 86 184 234 385 521 295 421 268 394 404 410 84 11 312 7 432 -7 35 -4
58 -2 67 6 8 7 44 69 78 139 95 188 376 635 420 666 36 25 73 18 200 -41 67
-31 146 -65 177 -76 30 -10 72 -30 92 -43 73 -49 150 -194 218 -415 23 -74 45
-142 49 -150 6 -11 35 -16 120 -21 62 -3 116 -10 120 -15 24 -26 203 -272 261
-359 90 -135 202 -320 247 -408 37 -71 37 -73 35 -180 -2 -105 -1 -112 32
-185 19 -43 55 -150 80 -239 67 -234 141 -446 188 -536 48 -92 112 -178 248
-332 170 -192 319 -403 452 -635 91 -160 193 -366 213 -431 9 -30 32 -96 51
-146 19 -51 34 -103 34 -117 0 -13 8 -50 19 -82 10 -33 24 -118 30 -189 6 -72
16 -174 22 -229 l12 -98 191 5 c105 2 326 12 491 21 799 43 1117 77 1176 125
l22 17 -39 32 c-55 45 -170 90 -299 117 -144 30 -238 67 -470 184 -245 124
-317 173 -445 301 -97 96 -222 245 -248 295 -41 79 -217 606 -257 767 -13 53
-35 116 -48 140 -14 24 -46 108 -72 188 -90 275 -197 525 -328 762 -29 54 -66
135 -81 180 -16 46 -48 127 -73 181 -24 54 -60 155 -79 225 -60 219 -105 349
-146 429 -114 218 -103 182 -102 322 0 69 7 156 14 193 12 61 12 73 -7 145
-12 43 -24 103 -28 133 -7 56 -71 278 -143 495 -51 155 -125 326 -212 492 -39
73 -70 140 -70 148 0 9 -18 63 -40 121 -22 57 -58 152 -81 212 -22 59 -55 129
-72 156 l-32 50 0 355 0 356 -77 155 c-163 328 -370 976 -372 1165 -1 65 1 70
21 73 17 3 39 -18 102 -98 81 -101 213 -294 246 -360 36 -71 114 -160 319
-365 228 -228 400 -385 681 -625 99 -84 206 -177 237 -207 31 -29 63 -53 71
-53 9 0 48 -25 88 -55 57 -43 80 -55 109 -55 42 0 66 -22 153 -145 32 -44 93
-120 138 -170 163 -183 256 -292 315 -370 84 -109 109 -132 129 -115 28 23 17
71 -35 155 -28 44 -50 85 -50 92 0 18 25 16 41 -4 8 -9 37 -31 64 -49 28 -17
93 -66 145 -108 97 -78 133 -97 152 -78 23 23 -7 69 -127 192 -114 116 -145
160 -114 160 19 0 120 -65 238 -155 86 -65 121 -85 140 -83 21 2 27 9 29 36 3
28 -5 41 -60 98 -35 36 -129 122 -210 191 -126 107 -148 130 -148 154 0 18 7
32 19 39 46 24 101 8 312 -91 142 -67 191 -81 204 -59 10 17 -26 65 -80 108
-68 53 -164 111 -293 176 -113 57 -194 127 -208 180 -12 51 33 92 156 142 188
76 250 118 250 170 0 33 -12 36 -61 15 -24 -11 -107 -29 -184 -41 -77 -12
-210 -35 -295 -52 -85 -16 -171 -27 -191 -25 -57 7 -100 33 -195 114 -49 41
-100 83 -114 92 -14 8 -91 81 -172 162 -125 125 -181 192 -388 468 -185 246
-276 357 -385 472 -117 121 -147 159 -164 203 -11 29 -31 70 -45 91 -14 20
-28 53 -32 74 -3 20 -17 55 -30 78 -13 23 -24 52 -24 65 0 13 -19 48 -41 78
-53 70 -69 107 -136 315 -30 94 -72 222 -94 286 -21 63 -39 121 -39 129 0 23
-106 233 -155 305 -25 39 -63 97 -82 130 -46 77 -85 119 -150 161 -151 97
-278 141 -444 154 l-121 9 -82 52 c-176 113 -184 119 -208 167 -22 45 -23 58
-23 257 0 116 3 222 7 236 4 15 26 48 48 75 63 77 82 144 87 314 4 110 1 163
-12 220 -22 104 -60 289 -78 388 -28 148 -106 283 -241 417 -69 69 -97 88
-191 134 -60 30 -118 58 -127 62 -22 11 -29 11 -50 -1z"/>
</g>
</svg>
